<svg xmlns="http://www.w3.org/2000/svg" viewBox="0 0 400 300"><defs><linearGradient id="proto-main" x1="0%" y1="0%" x2="100%" y2="100%"><stop offset="0%" style="stop-color:#4285f4;stop-opacity:1" /><stop offset="100%" style="stop-color:#1a5fcf;stop-opacity:1" /></linearGradient><linearGradient id="proto-accent" x1="0%" y1="0%" x2="0%" y2="100%"><stop offset="0%" style="stop-color:#1a5fcf;stop-opacity:1" /><stop offset="100%" style="stop-color:#0d3fa8;stop-opacity:1" /></linearGradient><filter id="proto-shadow"><feDropShadow dx="0" dy="8" stdDeviation="6" flood-opacity="0.3"/></filter></defs><rect width="400" height="300" fill="#f0f4ff"/><g filter="url(#proto-shadow)"><rect x="150" y="120" width="100" height="70" fill="url(#proto-main)" rx="4"/><rect x="150" y="120" width="100" height="30" fill="url(#proto-accent)" rx="4"/><circle cx="175" cy="155" r="6" fill="#0d3fa8" opacity="0.5"/><circle cx="200" cy="155" r="6" fill="#0d3fa8" opacity="0.5"/><circle cx="225" cy="155" r="6" fill="#0d3fa8" opacity="0.5"/></g><g filter="url(#proto-shadow)"><circle cx="100" cy="155" r="28" fill="none" stroke="url(#proto-main)" stroke-width="8"/><circle cx="100" cy="155" r="20" fill="url(#proto-main)" opacity="0.3"/><circle cx="100" cy="155" r="12" fill="#0d3fa8"/></g><g filter="url(#proto-shadow)"><circle cx="300" cy="155" r="28" fill="none" stroke="url(#proto-main)" stroke-width="8"/><circle cx="300" cy="155" r="20" fill="url(#proto-main)" opacity="0.3"/><circle cx="300" cy="155" r="12" fill="#0d3fa8"/></g><line x1="128" y1="155" x2="150" y2="155" stroke="url(#proto-main)" stroke-width="4"/><line x1="250" y1="155" x2="272" y2="155" stroke="url(#proto-main)" stroke-width="4"/><rect x="155" y="125" width="20" height="15" fill="#fff" opacity="0.25" rx="2"/></svg>
