<svg xmlns="http://www.w3.org/2000/svg" viewBox="0 0 400 300"><defs><linearGradient id="arch-wall" x1="0%" y1="0%" x2="100%" y2="0%"><stop offset="0%" style="stop-color:#e5d8c4;stop-opacity:1" /><stop offset="100%" style="stop-color:#c4b5a0;stop-opacity:1" /></linearGradient><linearGradient id="arch-shade" x1="0%" y1="0%" x2="0%" y2="100%"><stop offset="0%" style="stop-color:#d4c4b0;stop-opacity:1" /><stop offset="100%" style="stop-color:#a98861;stop-opacity:1" /></linearGradient><filter id="arch-shadow"><feDropShadow dx="2" dy="6" stdDeviation="5" flood-opacity="0.2"/></filter></defs><rect width="400" height="300" fill="#f8f3ed"/><rect x="80" y="200" width="240" height="20" fill="#a98861"/><rect x="80" y="200" width="240" height="8" fill="url(#arch-wall)"/><g filter="url(#arch-shadow)"><rect x="100" y="110" width="60" height="90" fill="url(#arch-shade)"/><rect x="108" y="118" width="10" height="12" fill="#7a6e61" opacity="0.6"/><rect x="128" y="118" width="10" height="12" fill="#7a6e61" opacity="0.6"/><rect x="148" y="118" width="10" height="12" fill="#7a6e61" opacity="0.6"/><rect x="108" y="138" width="10" height="12" fill="#7a6e61" opacity="0.6"/><rect x="128" y="138" width="10" height="12" fill="#7a6e61" opacity="0.6"/><rect x="148" y="138" width="10" height="12" fill="#7a6e61" opacity="0.6"/></g><g filter="url(#arch-shadow)"><rect x="175" y="80" width="50" height="120" fill="url(#arch-shade)"/><polygon points="175,80 200,60 225,80" fill="url(#arch-wall)" opacity="0.8"/><rect x="183" y="88" width="9" height="11" fill="#7a6e61" opacity="0.6"/><rect x="200" y="88" width="9" height="11" fill="#7a6e61" opacity="0.6"/><rect x="183" y="108" width="9" height="11" fill="#7a6e61" opacity="0.6"/><rect x="200" y="108" width="9" height="11" fill="#7a6e61" opacity="0.6"/></g><g filter="url(#arch-shadow)"><rect x="240" y="130" width="55" height="70" fill="url(#arch-shade)"/><rect x="248" y="138" width="9" height="11" fill="#7a6e61" opacity="0.6"/><rect x="265" y="138" width="9" height="11" fill="#7a6e61" opacity="0.6"/><rect x="282" y="138" width="9" height="11" fill="#7a6e61" opacity="0.6"/></g></svg>
