<svg xmlns="http://www.w3.org/2000/svg" viewBox="0 0 400 300"><defs><linearGradient id="shelf-wood" x1="0%" y1="0%" x2="0%" y2="100%"><stop offset="0%" style="stop-color:#b8925c;stop-opacity:1" /><stop offset="100%" style="stop-color:#7a5c33;stop-opacity:1" /></linearGradient><pattern id="wood-grain" patternUnits="userSpaceOnUse" width="20" height="100"><line x1="0" y1="0" x2="0" y2="100" stroke="#6b4c28" stroke-width="2" opacity="0.4"/><line x1="8" y1="0" x2="8" y2="100" stroke="#5a3d1f" stroke-width="1" opacity="0.3"/><line x1="16" y1="0" x2="16" y2="100" stroke="#6b4c28" stroke-width="1" opacity="0.25"/></pattern><filter id="shelf-shadow"><feDropShadow dx="1" dy="5" stdDeviation="4" flood-opacity="0.25"/></filter></defs><rect width="400" height="300" fill="#f5f0e8"/><rect x="70" y="120" width="12" height="110" fill="url(#shelf-wood)"/><rect x="70" y="120" width="12" height="110" fill="url(#wood-grain)"/><rect x="318" y="120" width="12" height="110" fill="url(#shelf-wood)"/><rect x="318" y="120" width="12" height="110" fill="url(#wood-grain)"/><g filter="url(#shelf-shadow)"><rect x="70" y="120" width="260" height="18" fill="url(#shelf-wood)" rx="2"/><rect x="70" y="120" width="260" height="18" fill="url(#wood-grain)" rx="2"/><rect x="75" y="123" width="250" height="12" fill="#c4a968" opacity="0.5"/></g><g filter="url(#shelf-shadow)"><rect x="70" y="170" width="260" height="18" fill="url(#shelf-wood)" rx="2"/><rect x="70" y="170" width="260" height="18" fill="url(#wood-grain)" rx="2"/><rect x="75" y="173" width="250" height="12" fill="#c4a968" opacity="0.5"/></g><g filter="url(#shelf-shadow)"><rect x="70" y="220" width="260" height="18" fill="url(#shelf-wood)" rx="2"/><rect x="70" y="220" width="260" height="18" fill="url(#wood-grain)" rx="2"/><rect x="75" y="223" width="250" height="12" fill="#c4a968" opacity="0.5"/></g></svg>
