<svg xmlns="http://www.w3.org/2000/svg" viewBox="0 0 400 300"><defs><linearGradient id="drone-body" x1="0%" y1="0%" x2="100%" y2="100%"><stop offset="0%" style="stop-color:#3a3e42;stop-opacity:1" /><stop offset="100%" style="stop-color:#1a1e22;stop-opacity:1" /></linearGradient><linearGradient id="drone-accent" x1="0%" y1="0%" x2="0%" y2="100%"><stop offset="0%" style="stop-color:#ff6b35;stop-opacity:1" /><stop offset="100%" style="stop-color:#d84315;stop-opacity:1" /></linearGradient><filter id="drone-shadow"><feDropShadow dx="0" dy="8" stdDeviation="6" flood-opacity="0.3"/></filter></defs><rect width="400" height="300" fill="#f2f3f5"/><g filter="url(#drone-shadow)"><rect x="150" y="130" width="100" height="60" fill="url(#drone-body)" rx="4"/><rect x="160" y="140" width="80" height="20" fill="url(#drone-accent)" rx="2" opacity="0.8"/></g><line x1="150" y1="150" x2="80" y2="120" stroke="url(#drone-body)" stroke-width="6" stroke-linecap="round"/><circle cx="80" cy="120" r="14" fill="none" stroke="url(#drone-accent)" stroke-width="6" opacity="0.8"/><line x1="250" y1="150" x2="320" y2="120" stroke="url(#drone-body)" stroke-width="6" stroke-linecap="round"/><circle cx="320" cy="120" r="14" fill="none" stroke="url(#drone-accent)" stroke-width="6" opacity="0.8"/><line x1="150" y1="180" x2="80" y2="210" stroke="url(#drone-body)" stroke-width="6" stroke-linecap="round"/><circle cx="80" cy="210" r="14" fill="none" stroke="url(#drone-accent)" stroke-width="6" opacity="0.8"/><line x1="250" y1="180" x2="320" y2="210" stroke="url(#drone-body)" stroke-width="6" stroke-linecap="round"/><circle cx="320" cy="210" r="14" fill="none" stroke="url(#drone-accent)" stroke-width="6" opacity="0.8"/><rect x="190" y="188" width="20" height="25" fill="url(#drone-accent)" rx="2"/><rect x="195" y="192" width="10" height="16" fill="#1a1e22" rx="1"/><line x1="60" y1="120" x2="100" y2="120" stroke="url(#drone-accent)" stroke-width="2" opacity="0.5"/><line x1="300" y1="120" x2="340" y2="120" stroke="url(#drone-accent)" stroke-width="2" opacity="0.5"/></svg>
